<svg width="512" height="512" viewBox="0 0 512 512" fill="none" xmlns="http://www.w3.org/2000/svg">
<g id="conversacionEditada">
<path id="circulo-ppal" d="M512 256C512 397.387 397.387 512 256 512C114.613 512 0 397.387 0 256C0 114.613 114.613 0 256 0C397.387 0 512 114.613 512 256Z" fill="#06CCAB"/>
<path id="sombra" d="M505.438 198.156L419.883 112.602L86.6914 202.863L128.371 244.547L113.195 258.371L162.836 308.012L85.9141 373.824L221.812 509.723C233 511.215 244.406 512 256 512C397.387 512 512 397.387 512 256C512 236.105 509.73 216.742 505.438 198.156Z" fill="#11A892"/>
<g id="persona-derecha">
<path id="shadow-cir" d="M441.816 329.285C441.816 368.453 410.066 400.203 370.902 400.203C331.734 400.203 299.984 368.453 299.984 329.285C299.984 290.121 331.734 258.371 370.902 258.371C410.066 258.371 441.816 290.121 441.816 329.285Z" fill="#DCE1EB"/>
<path id="head-right" d="M401.703 314.449C401.703 331.465 387.914 345.254 370.902 345.254C353.887 345.254 340.098 331.465 340.098 314.449C340.098 297.438 353.887 283.648 370.902 283.648C387.914 283.648 401.703 297.438 401.703 314.449Z" fill="#E09380"/>
<path id="violeta" d="M321.918 380.566C334.648 392.73 351.902 400.203 370.902 400.203C389.898 400.203 407.152 392.73 419.883 380.566C412.082 361.156 393.102 347.445 370.902 347.445C348.699 347.445 329.719 361.156 321.918 380.566Z" fill="#BB6BD9"/>
</g>
<g id="persona-izquierda">
<path id="withe-cir" d="M212.016 329.285C212.016 368.453 180.266 400.203 141.098 400.203C101.934 400.203 70.1836 368.453 70.1836 329.285C70.1836 290.121 101.934 258.371 141.098 258.371C180.266 258.371 212.016 290.121 212.016 329.285Z" fill="white"/>
<path id="head-left" d="M171.902 314.449C171.902 331.465 158.113 345.254 141.098 345.254C124.086 345.254 110.297 331.465 110.297 314.449C110.297 297.438 124.086 283.648 141.098 283.648C158.113 283.648 171.902 297.438 171.902 314.449Z" fill="#FFBEAA"/>
<path id="amarillo" d="M92.1172 380.566C104.848 392.73 122.102 400.203 141.098 400.203C160.098 400.203 177.352 392.73 190.082 380.566C182.281 361.156 163.301 347.445 141.098 347.445C118.898 347.445 99.918 361.156 92.1172 380.566Z" fill="#FFCE00"/>
</g>
<g id="nube-izquierda">
<path id="nube-entera" d="M378.82 97.3789H133.18C98.3906 97.3789 70.1836 125.582 70.1836 160.375C70.1836 188.18 88.2031 211.758 113.195 220.113V258.371L171.473 223.371H340.527L398.805 258.371V220.113C423.797 211.758 441.816 188.176 441.816 160.375C441.816 125.582 413.609 97.3789 378.82 97.3789Z" fill="#555A66"/>
<path id="cir-central" d="M274.227 162.227C274.227 172.289 266.066 180.449 256 180.449C245.934 180.449 237.773 172.289 237.773 162.227C237.773 152.16 245.934 144 256 144C266.066 144 274.227 152.16 274.227 162.227Z" fill="#7E8596"/>
<path id="cir-left" d="M177.551 162.227C177.551 172.289 169.391 180.449 159.324 180.449C149.258 180.449 141.098 172.289 141.098 162.227C141.098 152.16 149.258 144 159.324 144C169.391 144 177.551 152.16 177.551 162.227Z" fill="#7E8596"/>
</g>
<g id="nube-derecha">
<path id="fondo-nube" d="M378.82 97.3789H255.594V223.371H340.527L398.805 258.371V220.113C423.797 211.758 441.816 188.176 441.816 160.375C441.816 125.582 413.609 97.3789 378.82 97.3789Z" fill="#333940"/>
<path id="middle-cir" d="M256 144C255.863 144 255.73 144.02 255.594 144.02V180.43C255.73 180.434 255.863 180.449 256 180.449C266.066 180.449 274.227 172.289 274.227 162.227C274.227 152.16 266.066 144 256 144Z" fill="#636978"/>
<path id="cir-right" d="M370.902 162.227C370.902 172.289 362.742 180.449 352.676 180.449C342.609 180.449 334.449 172.289 334.449 162.227C334.449 152.16 342.609 144 352.676 144C362.742 144 370.902 152.16 370.902 162.227Z" fill="#636978"/>
</g>
</g>
</svg>
