<svg width="512" height="512" viewBox="0 0 512 512" fill="none" xmlns="http://www.w3.org/2000/svg">
    <g id="psychology 1">
        <g id="Group">
            <g id="Group_2">
                <g id="cir-ppal">
                  <path id="Vector" d="M256 512C397.385 512 512 397.385 512 256C512 114.615 397.385 0 256 0C114.615 0 0 114.615 0 256C0 397.385 114.615 512 256 512Z" fill="#4BCDD7"/>
                </g>
            </g>
          <g id="sillon">
            <path id="sombra" d="M294.042 508.71C406.59 490.571 494.57 399.072 507.375 284.826L407.964 185.415L309.488 338.969L142.84 172.32L159.266 246.21L85.43 172.374L156.744 323.059L189.491 355.806L170.481 385.149L294.042 508.71Z" fill="#00B8C1"/>
          <g id="Group_12">
            <path id="Vector_2" d="M425.589 299.478H310.371V224.813C310.371 195.613 334.043 171.941 363.243 171.941H372.717C401.917 171.941 425.589 195.613 425.589 224.813V299.478Z" fill="#555A66"/>
          </g>
          <g id="Group_13">
            <path id="Vector_3" d="M425.589 224.813C425.589 195.613 401.918 171.941 372.717 171.941H363.243C362.77 171.941 362.303 171.964 361.834 171.977V299.478H425.589V224.813Z" fill="#414952"/>
          </g>
          <g id="Group_14">
            <path id="Vector_4" d="M425.589 284.854H254.874V323.058H425.589V284.854Z" fill="#636978"/>
          </g>
          <g id="Group_15">
            <path id="Vector_5" d="M425.588 284.854H361.833V323.059H425.588V284.854Z" fill="#555A66"/>
          </g>
          <g id="Group_16">
            <path id="Vector_6" d="M409.933 327.898L381.388 337.126L399.899 394.388L428.444 385.16L409.933 327.898Z" fill="#414952"/>
          </g>
          <g id="Group_17">
            <path id="Vector_7" d="M188.986 327.881L170.475 385.143L199.02 394.371L217.531 337.109L188.986 327.881Z" fill="#555A66"/>
          </g>
          <g id="Group_18">
            <path id="Vector_8" d="M269.886 327.881L251.374 385.143L279.919 394.371L298.431 337.109L269.886 327.881Z" fill="#555A66"/>
          </g>
          <g id="Group_19">
            <path id="Vector_9" d="M429.764 351H225.236C194.787 351 166.611 337.208 147.934 313.162L56.209 195.07L85.43 172.374L177.156 290.466C188.772 305.422 206.297 314 225.236 314H429.763V351H429.764Z" fill="white"/>
          </g>
          <g id="Group_20">
            <path id="Vector_10" d="M429.764 314H252.905V351H429.764V314Z" fill="#E9EDF5"/>
          </g>
          <g id="Group_21">
            <path id="Vector_11" d="M142.837 172.316L113.7 195.119L174.96 273.395L204.097 250.592L142.837 172.316Z" fill="white"/>
          </g>
          
        </g>
    </g>
</g>
</svg>
